<svg xmlns="http://www.w3.org/2000/svg" width="940" height="520" viewBox="0 0 940 520">
<rect width="100%" height="100%" fill="white"/>
<text x="470" y="30" text-anchor="middle" font-family="sans-serif" font-size="20" font-weight="bold">LIMER CPU v0: selected performance retention</text>
<text x="470" y="51" text-anchor="middle" font-family="sans-serif" font-size="12">CPU/Mininet framed AllReduce-like; C3/C4 use post-recovery, others use post-marker/fault</text>
<line x1="82" y1="400.0" x2="882" y2="400.0" stroke="#dddddd"/>
<text x="72" y="404.0" text-anchor="end" font-family="sans-serif" font-size="11">0.0</text>
<line x1="82" y1="345.0" x2="882" y2="345.0" stroke="#dddddd"/>
<text x="72" y="349.0" text-anchor="end" font-family="sans-serif" font-size="11">0.2</text>
<line x1="82" y1="290.0" x2="882" y2="290.0" stroke="#dddddd"/>
<text x="72" y="294.0" text-anchor="end" font-family="sans-serif" font-size="11">0.4</text>
<line x1="82" y1="235.0" x2="882" y2="235.0" stroke="#dddddd"/>
<text x="72" y="239.0" text-anchor="end" font-family="sans-serif" font-size="11">0.6</text>
<line x1="82" y1="180.0" x2="882" y2="180.0" stroke="#dddddd"/>
<text x="72" y="184.0" text-anchor="end" font-family="sans-serif" font-size="11">0.8</text>
<line x1="82" y1="125.0" x2="882" y2="125.0" stroke="#dddddd"/>
<text x="72" y="129.0" text-anchor="end" font-family="sans-serif" font-size="11">1.0</text>
<line x1="82" y1="70.0" x2="882" y2="70.0" stroke="#dddddd"/>
<text x="72" y="74.0" text-anchor="end" font-family="sans-serif" font-size="11">1.2</text>
<line x1="82" y1="70" x2="82" y2="400" stroke="#333"/>
<line x1="82" y1="400" x2="882" y2="400" stroke="#333"/>
<rect x="111.3" y="124.8" width="74.7" height="275.2" fill="#5b8ff9" rx="3"/>
<circle cx="130.0" cy="124.8" r="3.5" fill="#222"/>
<circle cx="148.7" cy="130.2" r="3.5" fill="#222"/>
<circle cx="167.3" cy="119.8" r="3.5" fill="#222"/>
<text x="148.7" y="116.8" text-anchor="middle" font-family="sans-serif" font-size="12">1.001</text>
<text x="148.7" y="420" text-anchor="middle" font-family="sans-serif" font-size="12" font-weight="bold">C0</text>
<text x="148.7" y="437" text-anchor="middle" font-family="sans-serif" font-size="10">Fault-free</text>
<rect x="244.7" y="341.3" width="74.7" height="58.7" fill="#e8684a" rx="3"/>
<circle cx="263.3" cy="340.7" r="3.5" fill="#222"/>
<circle cx="282.0" cy="341.3" r="3.5" fill="#222"/>
<circle cx="300.7" cy="341.5" r="3.5" fill="#222"/>
<text x="282.0" y="333.3" text-anchor="middle" font-family="sans-serif" font-size="12">0.213</text>
<text x="282.0" y="420" text-anchor="middle" font-family="sans-serif" font-size="12" font-weight="bold">C1</text>
<text x="282.0" y="437" text-anchor="middle" font-family="sans-serif" font-size="10">Fault / no detector</text>
<rect x="378.0" y="341.8" width="74.7" height="58.2" fill="#f6bd16" rx="3"/>
<circle cx="396.7" cy="342.2" r="3.5" fill="#222"/>
<circle cx="415.3" cy="340.1" r="3.5" fill="#222"/>
<circle cx="434.0" cy="341.8" r="3.5" fill="#222"/>
<text x="415.3" y="333.8" text-anchor="middle" font-family="sans-serif" font-size="12">0.212</text>
<text x="415.3" y="420" text-anchor="middle" font-family="sans-serif" font-size="12" font-weight="bold">C2</text>
<text x="415.3" y="437" text-anchor="middle" font-family="sans-serif" font-size="10">Detect only</text>
<rect x="511.3" y="162.2" width="74.7" height="237.8" fill="#5ad8a6" rx="3"/>
<circle cx="530.0" cy="133.0" r="3.5" fill="#222"/>
<circle cx="548.7" cy="165.4" r="3.5" fill="#222"/>
<circle cx="567.3" cy="162.2" r="3.5" fill="#222"/>
<text x="548.7" y="154.2" text-anchor="middle" font-family="sans-serif" font-size="12">0.865</text>
<text x="548.7" y="420" text-anchor="middle" font-family="sans-serif" font-size="12" font-weight="bold">C3</text>
<text x="548.7" y="437" text-anchor="middle" font-family="sans-serif" font-size="10">Full proxy closed loop</text>
<rect x="644.7" y="130.6" width="74.7" height="269.4" fill="#5d7092" rx="3"/>
<circle cx="663.3" cy="126.5" r="3.5" fill="#222"/>
<circle cx="682.0" cy="131.8" r="3.5" fill="#222"/>
<circle cx="700.7" cy="130.6" r="3.5" fill="#222"/>
<text x="682.0" y="122.6" text-anchor="middle" font-family="sans-serif" font-size="12">0.980</text>
<text x="682.0" y="420" text-anchor="middle" font-family="sans-serif" font-size="12" font-weight="bold">C4</text>
<text x="682.0" y="437" text-anchor="middle" font-family="sans-serif" font-size="10">Oracle recovery</text>
<rect x="778.0" y="128.4" width="74.7" height="271.6" fill="#6dc8ec" rx="3"/>
<circle cx="796.7" cy="141.7" r="3.5" fill="#222"/>
<circle cx="815.3" cy="128.4" r="3.5" fill="#222"/>
<circle cx="834.0" cy="125.2" r="3.5" fill="#222"/>
<text x="815.3" y="120.4" text-anchor="middle" font-family="sans-serif" font-size="12">0.988</text>
<text x="815.3" y="420" text-anchor="middle" font-family="sans-serif" font-size="12" font-weight="bold">C5</text>
<text x="815.3" y="437" text-anchor="middle" font-family="sans-serif" font-size="10">100 ms transient</text>
<text x="20" y="235" transform="rotate(-90 20 235)" text-anchor="middle" font-family="sans-serif" font-size="12">Retention vs matched pre-fault baseline</text>
<text x="470" y="485" text-anchor="middle" font-family="sans-serif" font-size="11">Dots are three independent formal runs; bars are medians. Dual-fabric recovery assumption applies to C3/C4.</text>
</svg>
